<svg id="Capa_1" data-name="Capa 1" xmlns="http://www.w3.org/2000/svg" viewBox="0 0 911.17 383.39"><defs><style>.cls-1{fill:none;}.cls-2{fill:#231f20;}</style></defs><title>logo</title><line class="cls-1" x1="557.27" x2="554.93"/><path class="cls-2" d="M257.23,419.88a15.43,15.43,0,0,0,8,0,31.82,31.82,0,0,0,4-1.31v17h15.39v1.84H269.26v44.05a23.66,23.66,0,0,0,.27,3.68,9.74,9.74,0,0,0,1,3.09,5.31,5.31,0,0,0,2.11,2.17,7.18,7.18,0,0,0,3.61.79,8.28,8.28,0,0,0,4.28-1,11.35,11.35,0,0,0,3.09-2.7,15.28,15.28,0,0,0,2.17-3.75,34.32,34.32,0,0,0,1.38-4.07l2,.39a17.74,17.74,0,0,1-2.7,7.17,14.14,14.14,0,0,1-4.34,4.14,15,15,0,0,1-5.19,1.91,32.74,32.74,0,0,1-5.26.46q-6.84,0-10.58-1.58a13,13,0,0,1-5.53-3.95,9.93,9.93,0,0,1-2-5.12q-.27-2.76-.27-5.13v-40.5h-8.81v-1.84h8.81v-17A32.36,32.36,0,0,0,257.23,419.88Z" transform="translate(-244.41 -164.59)"/><path class="cls-2" d="M295.56,490.1V399h-8.68v-1.84H311.6v51h.27c.34-.79.94-1.95,1.77-3.48a18.08,18.08,0,0,1,3.75-4.6,22.88,22.88,0,0,1,6.37-4,24.42,24.42,0,0,1,9.8-1.71q8.69,0,13.48,5t4.8,13.68V490.1h8.81v1.84h-33V490.1h8.15V448.55q0-5.52-2.23-8.09a7.62,7.62,0,0,0-6.05-2.56,12.88,12.88,0,0,0-6.05,1.51A14.55,14.55,0,0,0,316.4,444a24.42,24.42,0,0,0-3.48,7.49A37.35,37.35,0,0,0,311.6,462V490.1h8.29v1.84h-33V490.1Z" transform="translate(-244.41 -164.59)"/><path class="cls-2" d="M380.63,464.85q0,4.74.39,9.53a27,27,0,0,0,2.11,8.68,16,16,0,0,0,5,6.38q3.28,2.51,9.21,2.5a18.26,18.26,0,0,0,8.87-2,21.84,21.84,0,0,0,5.92-4.53,20.16,20.16,0,0,0,3.42-5.06,14.64,14.64,0,0,0,1.25-3.69l1.84.66a22.93,22.93,0,0,1-2.24,5.33,20.13,20.13,0,0,1-4.34,5.26,23.52,23.52,0,0,1-6.83,4.07,26.31,26.31,0,0,1-9.86,1.65,38.92,38.92,0,0,1-12.76-2,30.44,30.44,0,0,1-10.32-5.92,27.05,27.05,0,0,1-6.9-9.47,30.66,30.66,0,0,1-2.5-12.68,27.23,27.23,0,0,1,2.37-11.05,30.85,30.85,0,0,1,6.5-9.53,33.43,33.43,0,0,1,9.73-6.71,28.52,28.52,0,0,1,12-2.56,30.41,30.41,0,0,1,9.21,1.45,24.28,24.28,0,0,1,8.28,4.47,23.13,23.13,0,0,1,6.05,7.82,25.73,25.73,0,0,1,2.37,11.5H380.63Zm21-16.57c0-1-.05-2.14-.13-3.55a14.75,14.75,0,0,0-.92-4.2,8.31,8.31,0,0,0-2.57-3.55,7.56,7.56,0,0,0-4.93-1.45q-4.47,0-6.9,2.1A12.66,12.66,0,0,0,382.6,443a27,27,0,0,0-1.51,7q-.33,3.75-.46,7.16h21Z" transform="translate(-244.41 -164.59)"/><path class="cls-2" d="M476.74,397.14v62.72h.66l24.46-22.49h-9.6v-1.84H512.9v1.84h-8.41l-14.73,13.94,30.11,38.79H525v1.84H490.16V490.1h9.46L477.4,461.7h-.66v28.4h8.16v1.84H452V490.1h8.67V399H452v-1.84Z" transform="translate(-244.41 -164.59)"/><path class="cls-2" d="M580.15,493.12a43.8,43.8,0,0,1-6.5.53q-6.71,0-9.93-2.37a10.12,10.12,0,0,1-4-6.57h-.26q-2.12,5.25-5.79,7.1T543,493.65a32.67,32.67,0,0,1-6.44-.66,22.66,22.66,0,0,1-6.05-2.1,12,12,0,0,1-4.47-4,11,11,0,0,1-1.71-6.24,12.37,12.37,0,0,1,1.51-6.38,14.35,14.35,0,0,1,3.95-4.34,22.22,22.22,0,0,1,5.52-2.89c2.06-.74,4.18-1.47,6.38-2.17q5.38-1.58,8.74-2.69a22,22,0,0,0,5.19-2.37A7.1,7.1,0,0,0,558.2,457a9.86,9.86,0,0,0,.72-4.07v-8a12.44,12.44,0,0,0-1.71-6.45c-1.14-1.92-3.29-2.89-6.44-2.89a9.8,9.8,0,0,0-5.26,1.38q-2.24,1.38-2.24,5.06c0,.27.05.73.13,1.38s.18,1.38.27,2.17.17,1.54.26,2.24a13.18,13.18,0,0,1,.13,1.44,4.73,4.73,0,0,1-.92,3.09,5.57,5.57,0,0,1-2.17,1.65,7.58,7.58,0,0,1-2.63.59c-.92.05-1.69.07-2.3.07a19.17,19.17,0,0,1-2.69-.2,5.67,5.67,0,0,1-2.44-.92,5.75,5.75,0,0,1-1.77-2,7.43,7.43,0,0,1-.72-3.55,10.3,10.3,0,0,1,1.9-6.11,15.16,15.16,0,0,1,5.06-4.47,26.55,26.55,0,0,1,7.17-2.7,37.42,37.42,0,0,1,8.35-.92,53,53,0,0,1,9.4.79,20.3,20.3,0,0,1,7.63,2.89,15.1,15.1,0,0,1,5.12,5.72,19.5,19.5,0,0,1,1.91,9.14v32.61a12.41,12.41,0,0,0,.72,4.4c.48,1.27,1.69,1.91,3.62,1.91a5.51,5.51,0,0,0,2.83-.66,9.45,9.45,0,0,0,2.17-1.84l1.18,1.18A7.43,7.43,0,0,1,580.15,493.12Zm-21.49-33.79a4,4,0,0,1-1,1.51,10.38,10.38,0,0,1-2.56,1.64q-2.5,1.18-5,2.31a17.65,17.65,0,0,0-4.47,2.82,13.41,13.41,0,0,0-3.22,4.21,14.32,14.32,0,0,0-1.25,6.44c0,1.05.06,2.28.2,3.68a13.2,13.2,0,0,0,1,4.08,8.65,8.65,0,0,0,2.56,3.35,7.35,7.35,0,0,0,4.74,1.38,7.65,7.65,0,0,0,3.35-.79,8.5,8.5,0,0,0,3-2.43,12.64,12.64,0,0,0,2.1-4.34,23.18,23.18,0,0,0,.79-6.51V459.33Z" transform="translate(-244.41 -164.59)"/><path class="cls-2" d="M594.68,490.1V437.37H586v-1.84h24.45v13.15h.26c.35-.79,1-2,1.85-3.62a19.28,19.28,0,0,1,3.81-4.8,23.22,23.22,0,0,1,6.44-4.14,24.12,24.12,0,0,1,9.86-1.77q8.69,0,13.48,5T651,453V490.1h8.81v1.84h-33V490.1h8.15V448.55q0-5.52-2.24-8.09a7.6,7.6,0,0,0-6-2.56,12.81,12.81,0,0,0-6,1.51,14.58,14.58,0,0,0-5.07,4.54,24.66,24.66,0,0,0-3.48,7.49A37.35,37.35,0,0,0,610.72,462V490.1H619v1.84H586V490.1Z" transform="translate(-244.41 -164.59)"/><path class="cls-2" d="M664.37,472.87c1,2.46,2.12,4.82,3.22,7.1a27.75,27.75,0,0,0,3.88,6,17.76,17.76,0,0,0,5.39,4.27,16.59,16.59,0,0,0,7.76,1.65c.79,0,1.84-.05,3.15-.13a9.78,9.78,0,0,0,3.88-1.12,9,9,0,0,0,3.29-3,10.36,10.36,0,0,0,1.38-5.85,9.46,9.46,0,0,0-.33-2.43,7,7,0,0,0-1.38-2.56,11.88,11.88,0,0,0-3.09-2.57,33.23,33.23,0,0,0-5.59-2.56l-10.65-3.95a28,28,0,0,1-3.94-1.77,15.1,15.1,0,0,1-3.88-3,15.73,15.73,0,0,1-3-4.4,14.5,14.5,0,0,1-1.18-6.12,17.08,17.08,0,0,1,1.57-7.23,18.48,18.48,0,0,1,4.41-6,21.08,21.08,0,0,1,6.84-4.08,24.72,24.72,0,0,1,8.74-1.51,19.88,19.88,0,0,1,4.67.53c1.44.35,2.76.72,3.94,1.11s2.24.77,3.16,1.12a6.61,6.61,0,0,0,2.17.53c1,0,1.58-.18,1.84-.53a5.38,5.38,0,0,0,.66-1.18h1.84v16h-1.71c-.88-2.11-1.78-4.12-2.7-6.05a21.75,21.75,0,0,0-3.29-5.06,13.46,13.46,0,0,0-4.66-3.42,16.62,16.62,0,0,0-6.84-1.25,14.52,14.52,0,0,0-8,2.3,7.51,7.51,0,0,0-3.62,6.77,10.17,10.17,0,0,0,.26,2.11,6.51,6.51,0,0,0,1.19,2.43,10.45,10.45,0,0,0,2.89,2.5,27.4,27.4,0,0,0,5.26,2.43l11.17,3.81q7.11,2.5,10.79,6.58a14.91,14.91,0,0,1,3.68,10.38,16,16,0,0,1-1.91,7.83,19.13,19.13,0,0,1-5,5.91,22.51,22.51,0,0,1-7.16,3.75,27.15,27.15,0,0,1-8.42,1.32,27.58,27.58,0,0,1-5.12-.53c-1.85-.35-3.62-.77-5.33-1.25s-3.27-.9-4.67-1.25a14.49,14.49,0,0,0-3.29-.52,2.34,2.34,0,0,0-1.51.39,3.62,3.62,0,0,0-.85,1.45h-1.84V472.87Z" transform="translate(-244.41 -164.59)"/><path class="cls-2" d="M767.52,493.12a44,44,0,0,1-6.51.53q-6.71,0-9.93-2.37a10.16,10.16,0,0,1-4-6.57h-.26q-2.1,5.25-5.79,7.1t-10.65,1.84a32.67,32.67,0,0,1-6.44-.66,22.66,22.66,0,0,1-6-2.1,12,12,0,0,1-4.47-4,11,11,0,0,1-1.71-6.24,12.47,12.47,0,0,1,1.51-6.38,14.48,14.48,0,0,1,3.95-4.34,22.22,22.22,0,0,1,5.52-2.89c2.06-.74,4.19-1.47,6.38-2.17,3.59-1.05,6.51-2,8.74-2.69a21.94,21.94,0,0,0,5.2-2.37,7.07,7.07,0,0,0,2.56-2.83,9.86,9.86,0,0,0,.72-4.07v-8a12.44,12.44,0,0,0-1.71-6.45c-1.14-1.92-3.28-2.89-6.44-2.89a9.8,9.8,0,0,0-5.26,1.38q-2.24,1.38-2.23,5.06a11.36,11.36,0,0,0,.13,1.38c.08.66.17,1.38.26,2.17s.18,1.54.26,2.24a13.18,13.18,0,0,1,.13,1.44,4.67,4.67,0,0,1-.92,3.09,5.5,5.5,0,0,1-2.17,1.65,7.53,7.53,0,0,1-2.63.59c-.91.05-1.68.07-2.3.07a19.28,19.28,0,0,1-2.69-.2,5.45,5.45,0,0,1-4.21-3,7.43,7.43,0,0,1-.72-3.55,10.3,10.3,0,0,1,1.9-6.11,15.1,15.1,0,0,1,5.07-4.47,26.35,26.35,0,0,1,7.16-2.7,37.49,37.49,0,0,1,8.35-.92,53,53,0,0,1,9.4.79,20.3,20.3,0,0,1,7.63,2.89,15,15,0,0,1,5.13,5.72,19.51,19.51,0,0,1,1.9,9.14v32.61a12.19,12.19,0,0,0,.73,4.4c.48,1.27,1.68,1.91,3.61,1.91a5.51,5.51,0,0,0,2.83-.66,9.25,9.25,0,0,0,2.17-1.84l1.18,1.18A7.43,7.43,0,0,1,767.52,493.12ZM746,459.33a4,4,0,0,1-1,1.51,10.19,10.19,0,0,1-2.56,1.64c-1.67.79-3.33,1.56-5,2.31a18,18,0,0,0-4.47,2.82,13.56,13.56,0,0,0-3.22,4.21,14.45,14.45,0,0,0-1.25,6.44c0,1.05.07,2.28.2,3.68a13.2,13.2,0,0,0,1,4.08,8.67,8.67,0,0,0,2.57,3.35,7.3,7.3,0,0,0,4.73,1.38,7.62,7.62,0,0,0,3.35-.79,8.41,8.41,0,0,0,3-2.43,12.29,12.29,0,0,0,2.1-4.34,23.18,23.18,0,0,0,.79-6.51V459.33Z" transform="translate(-244.41 -164.59)"/><path class="cls-2" d="M775.47,472.87c1,2.46,2.13,4.82,3.22,7.1a28.12,28.12,0,0,0,3.88,6,17.76,17.76,0,0,0,5.39,4.27,16.61,16.61,0,0,0,7.76,1.65c.79,0,1.84-.05,3.15-.13a9.78,9.78,0,0,0,3.88-1.12,9,9,0,0,0,3.29-3,10.36,10.36,0,0,0,1.38-5.85,9.46,9.46,0,0,0-.33-2.43,7,7,0,0,0-1.38-2.56,11.88,11.88,0,0,0-3.09-2.57,33.23,33.23,0,0,0-5.59-2.56l-10.65-3.95a28.48,28.48,0,0,1-3.94-1.77,15.27,15.27,0,0,1-3.88-3,16,16,0,0,1-3-4.4,14.5,14.5,0,0,1-1.18-6.12,17.09,17.09,0,0,1,1.58-7.23,18.3,18.3,0,0,1,4.4-6,21.08,21.08,0,0,1,6.84-4.08,24.76,24.76,0,0,1,8.74-1.51,19.82,19.82,0,0,1,4.67.53c1.45.35,2.76.72,3.94,1.11s2.24.77,3.16,1.12a6.61,6.61,0,0,0,2.17.53c1,0,1.58-.18,1.84-.53a5.38,5.38,0,0,0,.66-1.18h1.84v16h-1.71c-.88-2.11-1.78-4.12-2.7-6.05a21.72,21.72,0,0,0-3.28-5.06,13.59,13.59,0,0,0-4.67-3.42,16.62,16.62,0,0,0-6.84-1.25,14.54,14.54,0,0,0-7.95,2.3,7.51,7.51,0,0,0-3.62,6.77,10.17,10.17,0,0,0,.26,2.11,6.51,6.51,0,0,0,1.19,2.43,10.6,10.6,0,0,0,2.89,2.5,27.69,27.69,0,0,0,5.26,2.43l11.18,3.81q7.1,2.5,10.78,6.58a14.91,14.91,0,0,1,3.68,10.38,16,16,0,0,1-1.91,7.83,19.23,19.23,0,0,1-5,5.91,22.46,22.46,0,0,1-7.17,3.75,27.15,27.15,0,0,1-8.42,1.32,27.58,27.58,0,0,1-5.12-.53q-2.76-.53-5.33-1.25c-1.71-.48-3.26-.9-4.67-1.25a14.42,14.42,0,0,0-3.28-.52,2.3,2.3,0,0,0-1.51.39,3.51,3.51,0,0,0-.86,1.45h-1.84V472.87Z" transform="translate(-244.41 -164.59)"/><path class="cls-2" d="M854.89,472.87c1.05,2.46,2.12,4.82,3.22,7.1a27.38,27.38,0,0,0,3.88,6,17.64,17.64,0,0,0,5.39,4.27,16.54,16.54,0,0,0,7.75,1.65c.79,0,1.84-.05,3.16-.13a9.83,9.83,0,0,0,3.88-1.12,9,9,0,0,0,3.29-3,10.36,10.36,0,0,0,1.38-5.85,9.46,9.46,0,0,0-.33-2.43,7,7,0,0,0-1.38-2.56,12.05,12.05,0,0,0-3.09-2.57,33.23,33.23,0,0,0-5.59-2.56l-10.65-3.95a28.56,28.56,0,0,1-3.95-1.77,15.23,15.23,0,0,1-3.87-3,15.73,15.73,0,0,1-3-4.4,14.49,14.49,0,0,1-1.19-6.12,17.09,17.09,0,0,1,1.58-7.23,18.33,18.33,0,0,1,4.41-6,21.14,21.14,0,0,1,6.83-4.08,24.81,24.81,0,0,1,8.75-1.51,19.88,19.88,0,0,1,4.67.53c1.44.35,2.76.72,3.94,1.11s2.24.77,3.15,1.12a6.72,6.72,0,0,0,2.17.53c1,0,1.58-.18,1.85-.53a5,5,0,0,0,.65-1.18h1.84v16H892c-.87-2.11-1.77-4.12-2.69-6.05A21.75,21.75,0,0,0,886,440.2a13.5,13.5,0,0,0-4.67-3.42,16.6,16.6,0,0,0-6.83-1.25,14.55,14.55,0,0,0-8,2.3,7.52,7.52,0,0,0-3.61,6.77,9.53,9.53,0,0,0,.26,2.11,6.48,6.48,0,0,0,1.18,2.43,10.66,10.66,0,0,0,2.9,2.5,27.12,27.12,0,0,0,5.26,2.43l11.17,3.81q7.1,2.5,10.78,6.58a14.86,14.86,0,0,1,3.68,10.38,16,16,0,0,1-1.9,7.83,19.13,19.13,0,0,1-5,5.91,22.51,22.51,0,0,1-7.16,3.75,27.2,27.2,0,0,1-8.42,1.32,27.59,27.59,0,0,1-5.13-.53q-2.76-.53-5.32-1.25c-1.71-.48-3.27-.9-4.67-1.25a14.49,14.49,0,0,0-3.29-.52,2.34,2.34,0,0,0-1.51.39,3.51,3.51,0,0,0-.85,1.45h-1.84V472.87Z" transform="translate(-244.41 -164.59)"/><path class="cls-2" d="M914,419.88a15.43,15.43,0,0,0,8,0,32.36,32.36,0,0,0,4-1.31v17H941.4v1.84H926v44.05a23.7,23.7,0,0,0,.26,3.68,9.75,9.75,0,0,0,1,3.09,5.28,5.28,0,0,0,2.1,2.17,7.22,7.22,0,0,0,3.62.79,8.24,8.24,0,0,0,4.27-1,11.35,11.35,0,0,0,3.09-2.7,15,15,0,0,0,2.17-3.75,34.32,34.32,0,0,0,1.38-4.07l2,.39a17.6,17.6,0,0,1-2.69,7.17,14.25,14.25,0,0,1-4.34,4.14,15,15,0,0,1-5.2,1.91,32.74,32.74,0,0,1-5.26.46q-6.82,0-10.58-1.58a12.94,12.94,0,0,1-5.52-3.95,9.94,9.94,0,0,1-2-5.12c-.18-1.84-.26-3.55-.26-5.13v-40.5h-8.81v-1.84H910v-17A31.82,31.82,0,0,0,914,419.88Z" transform="translate(-244.41 -164.59)"/><path class="cls-2" d="M968.49,435.53v11.05h.26a27,27,0,0,1,6.38-8.62q4-3.61,10.58-3.61a13.14,13.14,0,0,1,8.94,3,10.28,10.28,0,0,1,3.42,8.21,9.23,9.23,0,0,1-1.91,6.18q-1.9,2.24-6.11,2.24a12.17,12.17,0,0,1-5.52-1.25Q982,451.45,982,448a11.71,11.71,0,0,1,.13-1.38q.14-1,.33-2.1t.33-2c.08-.61.13-1,.13-1.05a6,6,0,0,0-.4-1.65,2.69,2.69,0,0,0-.85-1.05,2.9,2.9,0,0,0-1.77-.46,6.6,6.6,0,0,0-3.29,1.25,13.38,13.38,0,0,0-3.68,3.62,23.75,23.75,0,0,0-3,5.72,21.33,21.33,0,0,0-1.25,7.56V490.1h10.39v1.84h-35V490.1h8.55V437.37h-8.55v-1.84Z" transform="translate(-244.41 -164.59)"/><path class="cls-2" d="M1012.93,464.85q0,4.74.39,9.53a26.71,26.71,0,0,0,2.1,8.68,16,16,0,0,0,5,6.38q3.29,2.51,9.2,2.5a18.27,18.27,0,0,0,8.88-2,22,22,0,0,0,5.92-4.53,19.84,19.84,0,0,0,3.41-5.06,13.85,13.85,0,0,0,1.25-3.69l1.85.66a23.83,23.83,0,0,1-2.24,5.33,20.13,20.13,0,0,1-4.34,5.26,23.44,23.44,0,0,1-6.84,4.07,26.24,26.24,0,0,1-9.86,1.65,38.82,38.82,0,0,1-12.75-2,30.25,30.25,0,0,1-10.32-5.92,27.2,27.2,0,0,1-6.91-9.47,30.82,30.82,0,0,1-2.49-12.68,27.22,27.22,0,0,1,2.36-11.05,31,31,0,0,1,6.51-9.53,33.17,33.17,0,0,1,9.73-6.71,28.48,28.48,0,0,1,12-2.56,30.3,30.3,0,0,1,9.2,1.45,24.42,24.42,0,0,1,8.29,4.47,23.25,23.25,0,0,1,6,7.82,25.73,25.73,0,0,1,2.36,11.5h-38.78Zm21-16.57c0-1,0-2.14-.13-3.55a14.41,14.41,0,0,0-.92-4.2,8.2,8.2,0,0,0-2.56-3.55,7.58,7.58,0,0,0-4.93-1.45c-3,0-5.29.7-6.91,2.1a12.74,12.74,0,0,0-3.61,5.33,26.56,26.56,0,0,0-1.51,7c-.22,2.5-.38,4.89-.46,7.16h21Z" transform="translate(-244.41 -164.59)"/><path class="cls-2" d="M1072.09,464.85q0,4.74.4,9.53a26.71,26.71,0,0,0,2.1,8.68,16,16,0,0,0,5,6.38q3.29,2.51,9.2,2.5a18.3,18.3,0,0,0,8.88-2,21.79,21.79,0,0,0,5.91-4.53,19.64,19.64,0,0,0,3.42-5.06,14.23,14.23,0,0,0,1.25-3.69l1.84.66a23.3,23.3,0,0,1-2.23,5.33,20.13,20.13,0,0,1-4.34,5.26,23.44,23.44,0,0,1-6.84,4.07,26.28,26.28,0,0,1-9.86,1.65,38.82,38.82,0,0,1-12.75-2,30.39,30.39,0,0,1-10.33-5.92,27.3,27.3,0,0,1-6.9-9.47,30.82,30.82,0,0,1-2.5-12.68,27.23,27.23,0,0,1,2.37-11.05,31,31,0,0,1,6.51-9.53,33.17,33.17,0,0,1,9.73-6.71,28.45,28.45,0,0,1,12-2.56,30.35,30.35,0,0,1,9.2,1.45,24.42,24.42,0,0,1,8.29,4.47,23.1,23.1,0,0,1,6,7.82,25.73,25.73,0,0,1,2.37,11.5h-38.79Zm21-16.57c0-1,0-2.14-.13-3.55a14.75,14.75,0,0,0-.92-4.2,8.29,8.29,0,0,0-2.56-3.55,7.59,7.59,0,0,0-4.94-1.45q-4.47,0-6.9,2.1a12.64,12.64,0,0,0-3.61,5.33,27,27,0,0,0-1.52,7q-.33,3.75-.46,7.16h21Z" transform="translate(-244.41 -164.59)"/><path class="cls-2" d="M1123.7,419.88a15.43,15.43,0,0,0,8,0,31.82,31.82,0,0,0,4-1.31v17h15.38v1.84h-15.38v44.05a25,25,0,0,0,.26,3.68,10,10,0,0,0,1,3.09,5.28,5.28,0,0,0,2.1,2.17,7.22,7.22,0,0,0,3.62.79,8.24,8.24,0,0,0,4.27-1,11.06,11.06,0,0,0,3.09-2.7,14.67,14.67,0,0,0,2.17-3.75,34.32,34.32,0,0,0,1.38-4.07l2,.39a17.74,17.74,0,0,1-2.7,7.17,14.25,14.25,0,0,1-4.34,4.14,15,15,0,0,1-5.19,1.91,32.84,32.84,0,0,1-5.26.46q-6.84,0-10.59-1.58a13,13,0,0,1-5.52-3.95,10,10,0,0,1-2-5.12c-.17-1.84-.26-3.55-.26-5.13v-40.5h-8.81v-1.84h8.81v-17A31.82,31.82,0,0,0,1123.7,419.88Z" transform="translate(-244.41 -164.59)"/><path class="cls-2" d="M601.13,545.26a14.1,14.1,0,0,1-2.38,1.47,12.12,12.12,0,0,1-2.8.93,15.85,15.85,0,0,1-3.36.32,13.38,13.38,0,0,1-5.33-1.05,12.94,12.94,0,0,1-7-7.17,14.44,14.44,0,0,1,0-10.61,13,13,0,0,1,7.07-7.27,13.74,13.74,0,0,1,5.48-1.07,16.58,16.58,0,0,1,3.28.3,14,14,0,0,1,2.72.85,12.43,12.43,0,0,1,2.29,1.29,17.42,17.42,0,0,1,2,1.65l-3,3.42a14.75,14.75,0,0,0-3.34-2.36,8.62,8.62,0,0,0-4-.91,8.18,8.18,0,0,0-3.47.74,8.55,8.55,0,0,0-2.76,2,9.06,9.06,0,0,0-1.8,2.94,10.35,10.35,0,0,0-.64,3.64,10.51,10.51,0,0,0,.64,3.66,9.24,9.24,0,0,0,1.8,3,8.61,8.61,0,0,0,2.76,2,8.18,8.18,0,0,0,3.47.73,8.6,8.6,0,0,0,4.13-.92,16,16,0,0,0,3.41-2.49l3,3A16.52,16.52,0,0,1,601.13,545.26Z" transform="translate(-244.41 -164.59)"/><path class="cls-2" d="M643.89,539.62A13.37,13.37,0,0,1,641,544a13.71,13.71,0,0,1-9.91,4,13.91,13.91,0,0,1-5.55-1.07,12.94,12.94,0,0,1-7.13-7.22,14,14,0,0,1,0-10.51,13.05,13.05,0,0,1,2.85-4.33,13.67,13.67,0,0,1,9.91-4,14.12,14.12,0,0,1,5.55,1.07,13.08,13.08,0,0,1,7.13,7.23,14.18,14.18,0,0,1,0,10.51Zm-4.48-8.81a9.45,9.45,0,0,0-1.84-3,8.8,8.8,0,0,0-2.84-2,8.45,8.45,0,0,0-3.6-.76,8.62,8.62,0,0,0-3.58.74,8.4,8.4,0,0,0-2.8,2,9.15,9.15,0,0,0-1.82,3,10.41,10.41,0,0,0,0,7.24,9.21,9.21,0,0,0,1.84,3,8.75,8.75,0,0,0,2.83,2,9.1,9.1,0,0,0,7.19,0,8.55,8.55,0,0,0,2.8-2,9.26,9.26,0,0,0,1.82-3,10.43,10.43,0,0,0,0-7.25Z" transform="translate(-244.41 -164.59)"/><path class="cls-2" d="M674.7,541.08h-.15l-8.22-12.31v18.76h-4.58V521.26h4.92l8,12.43,8-12.43h4.92v26.27H683V528.69Z" transform="translate(-244.41 -164.59)"/><path class="cls-2" d="M725.1,534a8.19,8.19,0,0,1-2.26,2.81,10.1,10.1,0,0,1-3.35,1.71,14,14,0,0,1-4.1.58h-5.23v8.44h-4.58V521.26h10.36a13.15,13.15,0,0,1,4.15.62,8.82,8.82,0,0,1,3.15,1.79,7.85,7.85,0,0,1,2,2.77,9.19,9.19,0,0,1,.69,3.64A8.82,8.82,0,0,1,725.1,534Zm-5.41-7.37a6.63,6.63,0,0,0-4.14-1.19h-5.39v9.49h5.39a6.21,6.21,0,0,0,4.16-1.3,4.3,4.3,0,0,0,1.52-3.44A4.19,4.19,0,0,0,719.69,526.62Z" transform="translate(-244.41 -164.59)"/><path class="cls-2" d="M764.43,547.53h-4.88l-2.67-6.34H744.46l-2.7,6.34H737l11.56-26.45h4.28Zm-13.78-20.94-4.5,10.51h9Z" transform="translate(-244.41 -164.59)"/><path class="cls-2" d="M798.5,521.26h4.58v26.27h-3.86l-14.46-18.68v18.68h-4.57V521.26h4.26l14,18.17Z" transform="translate(-244.41 -164.59)"/><path class="cls-2" d="M833.47,547.53h-4.65V537.18l-10.43-15.92h5.44l7.35,11.64,7.43-11.64h5.29l-10.43,15.8Z" transform="translate(-244.41 -164.59)"/><path class="cls-2" d="M691.29,292.36a47.38,47.38,0,0,0-6.26,0h6.26Zm0,0a47.38,47.38,0,0,0-6.26,0h6.26Zm0,0a47.38,47.38,0,0,0-6.26,0h6.26Z" transform="translate(-244.41 -164.59)"/><path class="cls-2" d="M765.75,284.44H695.56V272.93h0a1.42,1.42,0,0,0,0-.29v.28a15.63,15.63,0,0,1,2.8-1.64,16.85,16.85,0,0,1,5.82-1.46.39.39,0,0,0,.3-.18.42.42,0,0,0,0-.36,14.87,14.87,0,0,0-7-7.56,14.15,14.15,0,0,0-4.41-1.37,32.63,32.63,0,0,0-62.86,12.29v62.7c.33,7.54,2.75,26.83,18.12,42.93A65.85,65.85,0,0,0,681.88,397a3.61,3.61,0,0,0,.86.1,4,4,0,0,0,4-4V368.8c.75,0,1.53,0,2.35,0a80.52,80.52,0,0,0,46.14-14.12c31.77-22.12,34.33-58.8,34.52-66.23v-.1A4,4,0,0,0,765.75,284.44ZM638.21,272.65a24.71,24.71,0,0,1,49.42,0v11.79h-3.19A63.61,63.61,0,0,0,657,292.36a52.43,52.43,0,0,0-18.76,18.27Zm44.87,67.73a4,4,0,0,0-4.31,3.94V388a58.38,58.38,0,0,1-24.62-15.2c-13.34-14-15.6-30.71-15.93-37.54A47.76,47.76,0,0,1,649.17,309c11.26-13.23,27.12-16.08,35.64-16.6H685a47.38,47.38,0,0,1,6.26,0h47.59a55.35,55.35,0,0,1-2.64,13.22l0,.06a50.28,50.28,0,0,1-12.83,20.54,3.11,3.11,0,0,0-.32.31,50.08,50.08,0,0,1-19.13,11.34l-.12,0A54.21,54.21,0,0,1,683.08,340.38Zm3.62,20.49V348.46a62.8,62.8,0,0,0,16-2l4.86,12.21A76.23,76.23,0,0,1,686.7,360.87Zm44-12.66a69.6,69.6,0,0,1-15.51,8.1h0L710.23,344A57.33,57.33,0,0,0,726,334.48l10.31,9.33A68.88,68.88,0,0,1,730.66,348.21ZM742,338.26,731.7,329a57.14,57.14,0,0,0,10.47-16.62l12.59,6A72.39,72.39,0,0,1,742,338.26Zm15.61-27.36-12.83-6.12a61.91,61.91,0,0,0,2.06-12.42h14.69A87,87,0,0,1,757.59,310.9Z" transform="translate(-244.41 -164.59)"/><path class="cls-2" d="M695.56,272.65v.28h0A1.42,1.42,0,0,0,695.56,272.65Z" transform="translate(-244.41 -164.59)"/><path class="cls-2" d="M670.39,270.7a6.25,6.25,0,1,1-6.25-6.24A6.25,6.25,0,0,1,670.39,270.7Z" transform="translate(-244.41 -164.59)"/><path class="cls-2" d="M695.56,272.65v.28h0A1.42,1.42,0,0,0,695.56,272.65Z" transform="translate(-244.41 -164.59)"/></svg>